<svg version="1.1" id="logo" width="128px" height="69px" xmlns="http://www.w3.org/2000/svg" xmlns:xlink="http://www.w3.org/1999/xlink" x="0px" y="0px" viewBox="0 0 246.2 133.1" style="enable-background:new 0 0 246.2 133.1;" xml:space="preserve">
<style type="text/css">
	.st0{fill-rule:evenodd;clip-rule:evenodd;fill:#F58220;}
	.st1{fill-rule:evenodd;clip-rule:evenodd;fill:#FFFFFF;stroke:#E6E7E8;stroke-width:0.216;stroke-miterlimit:22.9256;}
	.st2{fill-rule:evenodd;clip-rule:evenodd;fill:url(#preenchimento_1_);}
	.st3{fill-rule:evenodd;clip-rule:evenodd;fill:url(#fogo_1_);}
</style>
<path id="atacadista" class="st0" d="M18.6,127.3h-8l-1.9,5.5H5.8l7.6-21.2h2.5l7.5,21.2h-2.9L18.6,127.3L18.6,127.3z M11.4,124.9
	h6.3l-3.1-9.1h-0.1L11.4,124.9L11.4,124.9z M46.5,113.9h-7v18.9h-2.9v-18.9h-6.9v-2.3h16.7V113.9L46.5,113.9z M66.3,127.3h-8
	l-1.9,5.5h-2.9l7.6-21.2h2.5l7.5,21.2h-2.9L66.3,127.3L66.3,127.3z M59.2,124.9h6.3l-3.1-9.1h-0.1L59.2,124.9L59.2,124.9z M96.4,126
	L96.4,126c0.1,2.1-0.6,3.7-2.1,5.1c-1.4,1.3-3.3,2-5.7,2c-2.4,0-4.3-0.8-5.8-2.5c-1.5-1.7-2.3-3.9-2.3-6.5v-3.8
	c0-2.6,0.8-4.8,2.3-6.5c1.5-1.7,3.5-2.6,5.8-2.6c2.4,0,4.3,0.6,5.7,1.9s2.1,3,2.1,5.1l0,0.1h-2.7c0-1.5-0.4-2.7-1.3-3.5
	c-0.9-0.9-2.1-1.3-3.7-1.3c-1.6,0-2.9,0.6-3.8,1.9c-0.9,1.3-1.4,2.9-1.4,4.8v3.8c0,1.9,0.5,3.5,1.4,4.8c0.9,1.3,2.2,1.9,3.8,1.9
	c1.6,0,2.8-0.4,3.7-1.3c0.9-0.9,1.3-2,1.3-3.6H96.4L96.4,126z M118.1,127.3h-8l-1.9,5.5h-2.9l7.6-21.2h2.5l7.5,21.2H120L118.1,127.3
	L118.1,127.3z M111,124.9h6.3l-3.1-9.1h-0.1L111,124.9L111,124.9z M133.1,132.8v-21.2h6.7c2.8,0,5,0.9,6.7,2.6
	c1.7,1.7,2.5,3.9,2.5,6.6v2.9c0,2.7-0.8,4.9-2.5,6.6c-1.7,1.7-3.9,2.5-6.7,2.5H133.1L133.1,132.8z M135.9,113.9v16.7h3.8
	c2,0,3.5-0.6,4.6-1.9c1.1-1.3,1.7-2.9,1.7-5v-2.9c0-2-0.6-3.6-1.7-4.9c-1.1-1.3-2.7-1.9-4.6-1.9H135.9L135.9,113.9z M163.5,132.8
	h-2.9v-21.2h2.9V132.8L163.5,132.8z M187,127.5c0-1-0.3-1.8-1-2.4c-0.7-0.6-1.9-1.2-3.6-1.7c-2.2-0.5-3.8-1.3-5-2.4
	c-1.2-1-1.8-2.3-1.8-3.9c0-1.7,0.6-3,1.9-4.1c1.3-1.1,3-1.7,5.1-1.7c2.2,0,4,0.6,5.3,1.9c1.3,1.3,2,2.7,1.9,4.4l0,0.1H187
	c0-1.2-0.4-2.2-1.3-3c-0.8-0.8-1.9-1.2-3.2-1.2c-1.3,0-2.4,0.3-3.1,1c-0.7,0.7-1.1,1.5-1.1,2.5c0,0.9,0.4,1.7,1.2,2.3
	c0.8,0.6,2,1.2,3.8,1.6c2.1,0.6,3.8,1.4,4.9,2.4c1.1,1.1,1.7,2.4,1.7,4c0,1.7-0.7,3.1-2,4.1c-1.3,1-3.1,1.6-5.3,1.6
	c-2,0-3.9-0.6-5.4-1.7c-1.6-1.1-2.3-2.7-2.3-4.6l0-0.1h2.7c0,1.3,0.5,2.4,1.5,3.1c1,0.7,2.1,1.1,3.4,1.1c1.4,0,2.4-0.3,3.2-0.9
	C186.7,129.3,187,128.5,187,127.5L187,127.5z M215.8,113.9h-7v18.9H206v-18.9h-6.9v-2.3h16.7V113.9L215.8,113.9z M235.7,127.3h-8
	l-1.9,5.5h-2.9l7.6-21.2h2.5l7.5,21.2h-2.9L235.7,127.3L235.7,127.3z M228.5,124.9h6.3l-3.1-9.1h-0.1L228.5,124.9z"></path>
<path id="contorno" class="st1" d="M111.7,66.2l0-0.2c0.9-8.5,4.8-15.8,11.3-21.9c7.5-7.1,16.6-10.6,26.9-10.6h36.4l-17.4,24.1h4.6
	v1.8c1.5-6.6,4.7-12.5,10-17.2c7.3-6.5,16-9.7,25.8-9.7c21.9,0,36.8,14.9,36.8,36.8c0,21.6-15.3,36.8-36.8,36.8
	c-18.3,0-31.9-10.9-35.7-27.3v26.7h-27.7c-9.6,0-17.8-3.5-24.4-10.4c-4.4-4.7-7.3-10-8.8-15.9h-0.1c-2,16.2-14.6,27.3-31.7,27.3
	c-18.8,0-31.9-13.2-31.9-31.9c0-1.9,0.2-3.8,0.5-5.7c1.6-9.5,6.7-18.2,11-26.6c4.6-9,8.3-17.8,8.7-28.1l0.4-13.6l6.5,12
	c1.5,2.7,2.8,5.5,4,8.4l-0.5-4.6l7.5,8.4C96,34.6,108.1,51.3,111.7,66.2L111.7,66.2L111.7,66.2z M25.8,58.6v-0.4h20.7l16.1-24.7
	H21.4l-0.3,0c-12.5,1.6-21,8.4-21,21.6c-0.1,15.4,0,30.8,0,46.2v4.1h25.7V80.7h20.7V58.6H25.8L25.8,58.6z M70.4,74.4
	c0,6.1,4.1,10.1,10.2,10.1c6.1,0,10.1-4,10.1-10.1c0-6.2-4.1-10.1-10.2-10.1C74.3,64.3,70.4,68.2,70.4,74.4z"></path>
<linearGradient id="preenchimento_1_" gradientUnits="userSpaceOnUse" x1="123.1014" y1="37.6678" x2="123.1014" y2="101.8535">
	<stop offset="0" style="stop-color:#58595B"></stop>
	<stop offset="0.1753" style="stop-color:#49494B"></stop>
	<stop offset="0.439" style="stop-color:#2E2D2E"></stop>
	<stop offset="0.7106" style="stop-color:#0F0F10"></stop>
	<stop offset="1" style="stop-color:#000000"></stop>
</linearGradient>
<path id="preenchimento" class="st2" d="M21.7,54.1v5.5v9.6v13.6v18.5H4.3c0-15.4,0-30.8,0-46.1c0.1-10.3,6-16,17.4-17.5H55
	L44.2,54.1H21.7L21.7,54.1L21.7,54.1z M153.7,85.3V61.8h15.7v39.5h-15.7h-7.9c-8.5,0-15.7-3.1-21.4-9.1c-5.8-6.1-8.7-13.4-8.7-22
	c0-8.9,3.4-16.6,10.2-22.9c6.8-6.3,14.8-9.5,24.1-9.5h28.3L166.5,54h-17.3c-4.4,0-8.3,1.5-11.7,4.6c-3.4,3.1-5.1,6.9-5.1,11.3
	c0,4.1,1.4,7.7,4.1,10.7c2.7,3,6.1,4.6,10.2,4.6H153.7L153.7,85.3z M24.4,61.9v15.6h18.8V61.9H24.4L24.4,61.9z M241.9,69.2
	c0-19.3-12.8-32.6-32.6-32.6c-8.9,0-16.6,2.9-23,8.7c-6.5,5.8-9.7,13.8-9.7,24c0,19.4,13.4,32.6,32.6,32.6
	C228.5,101.9,241.9,88.6,241.9,69.2L241.9,69.2z M193.1,69.2c0-9.5,6.4-16,15.9-16c9.5,0,16.1,6.4,16.1,16c0,9.4-6.5,16-15.9,16
	C199.7,85.2,193.1,78.7,193.1,69.2z"></path>
<linearGradient id="fogo_1_" gradientUnits="userSpaceOnUse" x1="80.7987" y1="101.1609" x2="80.7987" y2="69.9669">
	<stop offset="0" style="stop-color:#F15623"></stop>
	<stop offset="1" style="stop-color:#F58220"></stop>
</linearGradient>
<path id="fogo" class="st3" d="M109.1,74.4c0,16.8-11.7,28.2-28.3,28.2c-16.7,0-28.2-11.5-28.2-28.2c0-19.5,19.4-35.2,20.2-60.3
	c3.6,6.6,7.1,16.2,10.7,26.7c1.3-4.9,1.3-9.4,0.8-13.8C94.1,38,109.1,58.7,109.1,74.4L109.1,74.4z M66.8,74.4
	c0,8.2,5.8,13.8,13.9,13.8c8.2,0,13.7-5.7,13.7-13.8c0-8.2-5.7-13.8-13.9-13.8C72.3,60.6,66.8,66.2,66.8,74.4z"></path>
</svg>